<mxfile host="app.diagrams.net" agent="Mozilla/5.0 (Macintosh; Intel Mac OS X 10_15_7) AppleWebKit/605.1.15 (KHTML, like Gecko) Version/17.5 Safari/605.1.15" version="24.7.10">
  <diagram name="Page-1" id="NVIDplfwPpL645zohMpe">
    <mxGraphModel dx="1949" dy="1930" grid="1" gridSize="10" guides="1" tooltips="1" connect="1" arrows="1" fold="1" page="1" pageScale="1" pageWidth="827" pageHeight="1169" math="0" shadow="0">
      <root>
        <mxCell id="0" />
        <mxCell id="1" parent="0" />
        <mxCell id="J_tO9Nc0sdhzEk3S7hDS-49" value="Відслідковування розкладу і управління складанням і тестуванням" style="whiteSpace=wrap;html=1;align=center;rounded=1;arcSize=0;" vertex="1" parent="1">
          <mxGeometry x="50" y="60" width="160" height="70" as="geometry" />
        </mxCell>
        <mxCell id="J_tO9Nc0sdhzEk3S7hDS-50" value="" style="endArrow=classic;html=1;rounded=1;entryX=0.313;entryY=0;entryDx=0;entryDy=0;entryPerimeter=0;" edge="1" parent="1" target="J_tO9Nc0sdhzEk3S7hDS-49">
          <mxGeometry width="50" height="50" relative="1" as="geometry">
            <mxPoint x="100" as="sourcePoint" />
            <mxPoint x="140" as="targetPoint" />
          </mxGeometry>
        </mxCell>
        <mxCell id="J_tO9Nc0sdhzEk3S7hDS-51" value="Замовлення клієнтів" style="text;html=1;align=center;verticalAlign=middle;whiteSpace=wrap;rounded=0;" vertex="1" parent="1">
          <mxGeometry x="30" y="10" width="60" height="30" as="geometry" />
        </mxCell>
        <mxCell id="J_tO9Nc0sdhzEk3S7hDS-52" value="Складання настільних комп&#39;ютерів" style="whiteSpace=wrap;html=1;align=center;rounded=1;arcSize=0;" vertex="1" parent="1">
          <mxGeometry x="240" y="200" width="140" height="70" as="geometry" />
        </mxCell>
        <mxCell id="J_tO9Nc0sdhzEk3S7hDS-53" value="Складання ноутбуків" style="whiteSpace=wrap;html=1;align=center;rounded=1;arcSize=0;" vertex="1" parent="1">
          <mxGeometry x="440" y="280" width="130" height="60" as="geometry" />
        </mxCell>
        <mxCell id="J_tO9Nc0sdhzEk3S7hDS-54" value="Тестування комп&#39;ютерів" style="whiteSpace=wrap;html=1;align=center;rounded=1;arcSize=0;" vertex="1" parent="1">
          <mxGeometry x="640" y="360" width="140" height="70" as="geometry" />
        </mxCell>
        <mxCell id="J_tO9Nc0sdhzEk3S7hDS-55" value="" style="endArrow=classic;html=1;rounded=1;exitX=1;exitY=0.25;exitDx=0;exitDy=0;entryX=0.25;entryY=0;entryDx=0;entryDy=0;" edge="1" parent="1" source="J_tO9Nc0sdhzEk3S7hDS-49" target="J_tO9Nc0sdhzEk3S7hDS-52">
          <mxGeometry width="50" height="50" relative="1" as="geometry">
            <mxPoint x="450" y="300" as="sourcePoint" />
            <mxPoint x="500" y="250" as="targetPoint" />
            <Array as="points">
              <mxPoint x="275" y="78" />
            </Array>
          </mxGeometry>
        </mxCell>
        <mxCell id="J_tO9Nc0sdhzEk3S7hDS-56" value="" style="endArrow=classic;html=1;rounded=1;entryX=0.431;entryY=1.05;entryDx=0;entryDy=0;entryPerimeter=0;" edge="1" parent="1" target="J_tO9Nc0sdhzEk3S7hDS-52">
          <mxGeometry width="50" height="50" relative="1" as="geometry">
            <mxPoint x="300" y="540" as="sourcePoint" />
            <mxPoint x="310" y="301.1764705882353" as="targetPoint" />
          </mxGeometry>
        </mxCell>
        <mxCell id="J_tO9Nc0sdhzEk3S7hDS-57" value="" style="endArrow=classic;html=1;rounded=1;exitX=1;exitY=0.5;exitDx=0;exitDy=0;" edge="1" parent="1" source="J_tO9Nc0sdhzEk3S7hDS-49">
          <mxGeometry width="50" height="50" relative="1" as="geometry">
            <mxPoint x="450" y="500" as="sourcePoint" />
            <mxPoint x="480" y="280" as="targetPoint" />
            <Array as="points">
              <mxPoint x="480" y="95" />
              <mxPoint x="480" y="200" />
            </Array>
          </mxGeometry>
        </mxCell>
        <mxCell id="J_tO9Nc0sdhzEk3S7hDS-58" value="" style="endArrow=classic;html=1;rounded=1;exitX=1;exitY=0.75;exitDx=0;exitDy=0;" edge="1" parent="1" source="J_tO9Nc0sdhzEk3S7hDS-49">
          <mxGeometry width="50" height="50" relative="1" as="geometry">
            <mxPoint x="220" y="105" as="sourcePoint" />
            <mxPoint x="720" y="350" as="targetPoint" />
            <Array as="points">
              <mxPoint x="720" y="113" />
              <mxPoint x="720" y="240" />
            </Array>
          </mxGeometry>
        </mxCell>
        <mxCell id="J_tO9Nc0sdhzEk3S7hDS-59" value="" style="endArrow=classic;html=1;rounded=1;exitX=1;exitY=0.25;exitDx=0;exitDy=0;" edge="1" parent="1" source="J_tO9Nc0sdhzEk3S7hDS-52">
          <mxGeometry width="50" height="50" relative="1" as="geometry">
            <mxPoint x="430" y="360" as="sourcePoint" />
            <mxPoint x="910" y="220" as="targetPoint" />
          </mxGeometry>
        </mxCell>
        <mxCell id="J_tO9Nc0sdhzEk3S7hDS-61" value="" style="endArrow=none;html=1;rounded=1;exitX=1;exitY=0.25;exitDx=0;exitDy=0;" edge="1" parent="1" source="J_tO9Nc0sdhzEk3S7hDS-54">
          <mxGeometry width="50" height="50" relative="1" as="geometry">
            <mxPoint x="600" y="430" as="sourcePoint" />
            <mxPoint x="830" y="220" as="targetPoint" />
            <Array as="points">
              <mxPoint x="830" y="378" />
            </Array>
          </mxGeometry>
        </mxCell>
        <mxCell id="J_tO9Nc0sdhzEk3S7hDS-62" value="" style="endArrow=none;html=1;rounded=1;" edge="1" parent="1">
          <mxGeometry width="50" height="50" relative="1" as="geometry">
            <mxPoint x="571" y="310" as="sourcePoint" />
            <mxPoint x="830" y="260" as="targetPoint" />
            <Array as="points">
              <mxPoint x="830" y="310" />
            </Array>
          </mxGeometry>
        </mxCell>
        <mxCell id="J_tO9Nc0sdhzEk3S7hDS-63" value="" style="endArrow=classic;html=1;rounded=1;exitX=1.026;exitY=0.546;exitDx=0;exitDy=0;exitPerimeter=0;" edge="1" parent="1">
          <mxGeometry width="50" height="50" relative="1" as="geometry">
            <mxPoint x="779.9999999999999" y="398.22" as="sourcePoint" />
            <mxPoint x="910" y="400" as="targetPoint" />
          </mxGeometry>
        </mxCell>
        <mxCell id="J_tO9Nc0sdhzEk3S7hDS-64" value="" style="endArrow=classic;html=1;rounded=1;exitX=1.026;exitY=0.546;exitDx=0;exitDy=0;exitPerimeter=0;" edge="1" parent="1">
          <mxGeometry width="50" height="50" relative="1" as="geometry">
            <mxPoint x="779.9999999999999" y="410" as="sourcePoint" />
            <mxPoint x="910" y="411.78" as="targetPoint" />
          </mxGeometry>
        </mxCell>
        <mxCell id="J_tO9Nc0sdhzEk3S7hDS-66" value="" style="endArrow=classic;html=1;rounded=1;exitX=1;exitY=0.75;exitDx=0;exitDy=0;entryX=-0.001;entryY=0.594;entryDx=0;entryDy=0;entryPerimeter=0;" edge="1" parent="1" target="J_tO9Nc0sdhzEk3S7hDS-54">
          <mxGeometry width="50" height="50" relative="1" as="geometry">
            <mxPoint x="380" y="250" as="sourcePoint" />
            <mxPoint x="600" y="297.5" as="targetPoint" />
            <Array as="points">
              <mxPoint x="410" y="250" />
              <mxPoint x="410" y="402" />
              <mxPoint x="600" y="400" />
            </Array>
          </mxGeometry>
        </mxCell>
        <mxCell id="J_tO9Nc0sdhzEk3S7hDS-67" value="" style="endArrow=classic;html=1;rounded=1;entryX=0;entryY=0.857;entryDx=0;entryDy=0;entryPerimeter=0;exitX=0.993;exitY=0.847;exitDx=0;exitDy=0;exitPerimeter=0;" edge="1" parent="1" source="J_tO9Nc0sdhzEk3S7hDS-54" target="J_tO9Nc0sdhzEk3S7hDS-49">
          <mxGeometry width="50" height="50" relative="1" as="geometry">
            <mxPoint x="780" y="420" as="sourcePoint" />
            <mxPoint x="13" y="100" as="targetPoint" />
            <Array as="points">
              <mxPoint x="813" y="420" />
              <mxPoint x="813" y="480" />
              <mxPoint x="20" y="480" />
              <mxPoint x="19" y="280" />
              <mxPoint x="20" y="200" />
              <mxPoint x="20" y="120" />
            </Array>
          </mxGeometry>
        </mxCell>
        <mxCell id="J_tO9Nc0sdhzEk3S7hDS-68" value="" style="endArrow=classic;html=1;rounded=1;entryX=0.354;entryY=1.017;entryDx=0;entryDy=0;entryPerimeter=0;" edge="1" parent="1" target="J_tO9Nc0sdhzEk3S7hDS-54">
          <mxGeometry width="50" height="50" relative="1" as="geometry">
            <mxPoint x="300" y="500" as="sourcePoint" />
            <mxPoint x="670" y="360" as="targetPoint" />
            <Array as="points">
              <mxPoint x="310" y="510" />
              <mxPoint x="690" y="510" />
            </Array>
          </mxGeometry>
        </mxCell>
        <mxCell id="J_tO9Nc0sdhzEk3S7hDS-69" value="" style="endArrow=classic;html=1;rounded=1;entryX=0.328;entryY=1.04;entryDx=0;entryDy=0;entryPerimeter=0;" edge="1" parent="1" target="J_tO9Nc0sdhzEk3S7hDS-49">
          <mxGeometry width="50" height="50" relative="1" as="geometry">
            <mxPoint x="300" y="500" as="sourcePoint" />
            <mxPoint x="110" y="170" as="targetPoint" />
            <Array as="points">
              <mxPoint x="290" y="510" />
              <mxPoint x="100" y="510" />
            </Array>
          </mxGeometry>
        </mxCell>
        <mxCell id="J_tO9Nc0sdhzEk3S7hDS-74" value="" style="ellipse;whiteSpace=wrap;html=1;align=center;aspect=fixed;fillColor=none;strokeColor=none;resizable=0;perimeter=centerPerimeter;rotatable=0;allowArrows=0;points=[];outlineConnect=1;rounded=1;" vertex="1" parent="1">
          <mxGeometry x="360" y="440" width="10" height="10" as="geometry" />
        </mxCell>
        <mxCell id="J_tO9Nc0sdhzEk3S7hDS-75" value="" style="endArrow=classic;html=1;rounded=1;" edge="1" parent="1">
          <mxGeometry width="50" height="50" relative="1" as="geometry">
            <mxPoint x="-10" y="300" as="sourcePoint" />
            <mxPoint x="240" y="240" as="targetPoint" />
            <Array as="points">
              <mxPoint x="60" y="300" />
              <mxPoint x="60" y="290" />
              <mxPoint x="60" y="240" />
            </Array>
          </mxGeometry>
        </mxCell>
        <mxCell id="J_tO9Nc0sdhzEk3S7hDS-76" value="" style="endArrow=classic;html=1;rounded=1;entryX=-0.007;entryY=0.857;entryDx=0;entryDy=0;entryPerimeter=0;" edge="1" parent="1" target="J_tO9Nc0sdhzEk3S7hDS-54">
          <mxGeometry width="50" height="50" relative="1" as="geometry">
            <mxPoint x="40" y="300" as="sourcePoint" />
            <mxPoint x="630" y="420" as="targetPoint" />
            <Array as="points">
              <mxPoint x="60" y="300" />
              <mxPoint x="60" y="420" />
            </Array>
          </mxGeometry>
        </mxCell>
        <mxCell id="J_tO9Nc0sdhzEk3S7hDS-77" value="" style="endArrow=classic;html=1;rounded=1;" edge="1" parent="1">
          <mxGeometry width="50" height="50" relative="1" as="geometry">
            <mxPoint x="60" y="320" as="sourcePoint" />
            <mxPoint x="439" y="320" as="targetPoint" />
            <Array as="points">
              <mxPoint x="70" y="320" />
            </Array>
          </mxGeometry>
        </mxCell>
        <mxCell id="J_tO9Nc0sdhzEk3S7hDS-78" value="" style="endArrow=classic;html=1;rounded=1;entryX=0.5;entryY=0;entryDx=0;entryDy=0;" edge="1" parent="1" target="J_tO9Nc0sdhzEk3S7hDS-52">
          <mxGeometry width="50" height="50" relative="1" as="geometry">
            <mxPoint x="310" y="10" as="sourcePoint" />
            <mxPoint x="390" y="370" as="targetPoint" />
          </mxGeometry>
        </mxCell>
        <mxCell id="J_tO9Nc0sdhzEk3S7hDS-79" value="" style="endArrow=classic;html=1;rounded=1;entryX=0.5;entryY=0;entryDx=0;entryDy=0;" edge="1" parent="1">
          <mxGeometry width="50" height="50" relative="1" as="geometry">
            <mxPoint x="530" y="30" as="sourcePoint" />
            <mxPoint x="530" y="280" as="targetPoint" />
          </mxGeometry>
        </mxCell>
        <mxCell id="J_tO9Nc0sdhzEk3S7hDS-80" value="" style="endArrow=classic;html=1;rounded=1;" edge="1" parent="1">
          <mxGeometry width="50" height="50" relative="1" as="geometry">
            <mxPoint x="310" y="30" as="sourcePoint" />
            <mxPoint x="750" y="350" as="targetPoint" />
            <Array as="points">
              <mxPoint x="750" y="30" />
            </Array>
          </mxGeometry>
        </mxCell>
        <mxCell id="J_tO9Nc0sdhzEk3S7hDS-81" value="Готові комп&#39;ютери" style="text;html=1;align=center;verticalAlign=middle;whiteSpace=wrap;rounded=0;" vertex="1" parent="1">
          <mxGeometry x="850" y="360" width="60" height="30" as="geometry" />
        </mxCell>
        <mxCell id="J_tO9Nc0sdhzEk3S7hDS-82" value="Несправні компоненти" style="text;html=1;align=center;verticalAlign=middle;whiteSpace=wrap;rounded=0;" vertex="1" parent="1">
          <mxGeometry x="850" y="420" width="60" height="30" as="geometry" />
        </mxCell>
        <mxCell id="J_tO9Nc0sdhzEk3S7hDS-83" value="Результати складання і тестування" style="text;html=1;align=center;verticalAlign=middle;whiteSpace=wrap;rounded=0;" vertex="1" parent="1">
          <mxGeometry x="810" y="170" width="120" height="30" as="geometry" />
        </mxCell>
        <mxCell id="J_tO9Nc0sdhzEk3S7hDS-85" value="Правила складання і тестування" style="text;html=1;align=center;verticalAlign=middle;whiteSpace=wrap;rounded=0;" vertex="1" parent="1">
          <mxGeometry x="360" width="240" height="30" as="geometry" />
        </mxCell>
        <mxCell id="J_tO9Nc0sdhzEk3S7hDS-86" value="Замовлення на ноутбуки" style="text;html=1;align=center;verticalAlign=middle;whiteSpace=wrap;rounded=0;" vertex="1" parent="1">
          <mxGeometry x="349" y="60" width="130" height="30" as="geometry" />
        </mxCell>
        <mxCell id="J_tO9Nc0sdhzEk3S7hDS-87" value="Компоненти" style="text;html=1;align=center;verticalAlign=middle;whiteSpace=wrap;rounded=0;" vertex="1" parent="1">
          <mxGeometry x="-10" y="260" width="60" height="30" as="geometry" />
        </mxCell>
        <mxCell id="J_tO9Nc0sdhzEk3S7hDS-88" value="Диспетчер" style="text;html=1;align=center;verticalAlign=middle;whiteSpace=wrap;rounded=0;" vertex="1" parent="1">
          <mxGeometry x="100" y="350" width="60" height="30" as="geometry" />
        </mxCell>
        <mxCell id="J_tO9Nc0sdhzEk3S7hDS-89" value="&lt;div style=&quot;text-align: center;&quot;&gt;Настільні комп&#39;ютери&lt;/div&gt;" style="text;whiteSpace=wrap;html=1;" vertex="1" parent="1">
          <mxGeometry x="330" y="320" width="90" height="30" as="geometry" />
        </mxCell>
        <mxCell id="J_tO9Nc0sdhzEk3S7hDS-90" value="Персонал виробничого відділу" style="text;html=1;align=center;verticalAlign=middle;whiteSpace=wrap;rounded=0;" vertex="1" parent="1">
          <mxGeometry x="310" y="530" width="60" height="30" as="geometry" />
        </mxCell>
        <mxCell id="J_tO9Nc0sdhzEk3S7hDS-91" value="Тестер" style="text;html=1;align=center;verticalAlign=middle;whiteSpace=wrap;rounded=0;" vertex="1" parent="1">
          <mxGeometry x="670" y="510" width="60" height="30" as="geometry" />
        </mxCell>
        <mxCell id="J_tO9Nc0sdhzEk3S7hDS-92" value="Результати тестування" style="text;html=1;align=center;verticalAlign=middle;whiteSpace=wrap;rounded=0;" vertex="1" parent="1">
          <mxGeometry x="790" y="480" width="60" height="30" as="geometry" />
        </mxCell>
        <mxCell id="J_tO9Nc0sdhzEk3S7hDS-93" value="" style="endArrow=classic;html=1;rounded=1;" edge="1" parent="1">
          <mxGeometry width="50" height="50" relative="1" as="geometry">
            <mxPoint x="570" y="330" as="sourcePoint" />
            <mxPoint x="640" y="370" as="targetPoint" />
            <Array as="points">
              <mxPoint x="610" y="330" />
              <mxPoint x="610" y="370" />
            </Array>
          </mxGeometry>
        </mxCell>
        <mxCell id="J_tO9Nc0sdhzEk3S7hDS-94" value="Ноутбуки" style="text;html=1;align=center;verticalAlign=middle;whiteSpace=wrap;rounded=0;" vertex="1" parent="1">
          <mxGeometry x="600" y="320" width="60" height="30" as="geometry" />
        </mxCell>
        <mxCell id="J_tO9Nc0sdhzEk3S7hDS-95" value="&lt;span style=&quot;caret-color: rgb(0, 0, 0); color: rgb(0, 0, 0); font-family: Helvetica; font-size: 12px; font-style: normal; font-variant-caps: normal; font-weight: 400; letter-spacing: normal; orphans: auto; text-align: center; text-indent: 0px; text-transform: none; white-space: normal; widows: auto; word-spacing: 0px; -webkit-text-stroke-width: 0px; background-color: rgb(251, 251, 251); text-decoration: none; display: inline !important; float: none;&quot;&gt;Замовлення на н&lt;/span&gt;&lt;span style=&quot;text-align: center;&quot;&gt;астільні комп&#39;ютери&lt;/span&gt;" style="text;whiteSpace=wrap;html=1;" vertex="1" parent="1">
          <mxGeometry x="220" y="20" width="100" height="40" as="geometry" />
        </mxCell>
        <mxCell id="J_tO9Nc0sdhzEk3S7hDS-96" value="Передати комп&#39;ютери на відвантаження" style="text;html=1;align=center;verticalAlign=middle;whiteSpace=wrap;rounded=0;" vertex="1" parent="1">
          <mxGeometry x="570" y="270" width="100" height="30" as="geometry" />
        </mxCell>
      </root>
    </mxGraphModel>
  </diagram>
</mxfile>
